Coordinates
version=1
nRows=20
nColumns=38
inDegrees=no

Units are S.I. units (second, meters, Newtons, ...)
If the header above contains a line with 'inDegrees', this indicates whether rotational values are in degrees (yes) or radians (no).

endheader
time	pelvis_tilt	pelvis_list	pelvis_rotation	pelvis_tx	pelvis_ty	pelvis_tz	hip_flexion_r	hip_adduction_r	hip_rotation_r	knee_angle_r	ankle_angle_r	subtalar_angle_r	mtp_angle_r	hip_flexion_l	hip_adduction_l	hip_rotation_l	knee_angle_l	ankle_angle_l	subtalar_angle_l	mtp_angle_l	lumbar_extension	lumbar_bending	lumbar_rotation	arm_flex_r	arm_add_r	arm_rot_r	elbow_flex_r	pro_sup_r	wrist_flex_r	wrist_dev_r	arm_flex_l	arm_add_l	arm_rot_l	elbow_flex_l	pro_sup_l	wrist_flex_l	wrist_dev_l
1.24	2.9332	1.54879	-1.28944	0.649349	0.962398	0.941899	0.346894	-0.0802935	-0.352165	0.56435	0.114291	0	0	0.291004	-0.0813495	0.0241015	1.37738	-0.11228	0	0	-0.0559083	0.0360009	-0.114143	-0.184947	-0.185931	0.140271	0.604798	1.13004	0	0	-0.0418009	-0.234127	0.375188	0.637758	0.898492	0	0
1.25	3.08827	1.54882	-1.45292	0.651348	0.972863	0.944027	0.327474	-0.077656	-0.352696	0.551451	0.119754	0	0	0.314015	-0.0775792	0.0125347	1.38244	-0.105753	0	0	-0.0578807	0.032785	-0.101227	-0.178769	-0.188854	0.135919	0.613007	1.1409	0	0	-0.0505278	-0.230974	0.369996	0.63112	0.918601	0	0
1.26	-3.05971	1.54666	-1.59722	0.653481	0.983305	0.946142	0.305903	-0.0746875	-0.352905	0.538078	0.125374	0	0	0.333694	-0.0748544	0.000308491	1.38252	-0.101361	0	0	-0.0612576	0.0296921	-0.0877308	-0.172855	-0.194891	0.144262	0.625202	1.11796	0	0	-0.0594611	-0.233517	0.386426	0.633259	0.881659	0	0
1.27	-2.94919	1.54287	-1.71745	0.655649	0.993794	0.94825	0.282876	-0.0718535	-0.351808	0.52419	0.130631	0	0	0.350493	-0.0724982	-0.0126815	1.37786	-0.0964481	0	0	-0.0661814	0.0264371	-0.0737006	-0.165549	-0.197441	0.13601	0.633001	1.1369	0	0	-0.0685889	-0.232779	0.389075	0.63252	0.879768	0	0
1.28	-2.85237	1.53749	-1.82471	0.65785	1.00426	0.950262	0.259492	-0.0700682	-0.348752	0.511311	0.135763	0	0	0.364306	-0.0697525	-0.0266604	1.36875	-0.0897268	0	0	-0.0724391	0.0221293	-0.0597013	-0.156668	-0.201118	0.135412	0.640031	1.14187	0	0	-0.0784518	-0.232905	0.392074	0.633869	0.87395	0	0
1.29	-2.78306	1.53081	-1.90517	0.660211	1.01466	0.952217	0.235536	-0.0688258	-0.343541	0.498951	0.140671	0	0	0.375034	-0.0671132	-0.0416445	1.35535	-0.080464	0	0	-0.0795123	0.0171364	-0.0463106	-0.146378	-0.207052	0.147311	0.647451	1.121	0	0	-0.0897645	-0.232046	0.388436	0.634932	0.880813	0	0
1.3	-2.72705	1.52324	-1.97153	0.662414	1.02503	0.954012	0.211722	-0.0688401	-0.338084	0.487691	0.145947	0	0	0.38411	-0.0637844	-0.0563699	1.33844	-0.0689555	0	0	-0.0873041	0.0112248	-0.0342675	-0.13423	-0.211559	0.154806	0.651492	1.11682	0	0	-0.101294	-0.231597	0.384456	0.636624	0.887346	0	0
1.31	-2.67357	1.51556	-2.03566	0.664567	1.03529	0.955561	0.189782	-0.0702615	-0.331762	0.478749	0.151849	0	0	0.392557	-0.0600071	-0.0719208	1.3183	-0.0562341	0	0	-0.094776	0.00443769	-0.0222978	-0.120924	-0.215683	0.162424	0.653695	1.11313	0	0	-0.112428	-0.231015	0.380993	0.637375	0.893241	0	0
1.32	-2.62959	1.50804	-2.0904	0.666646	1.04537	0.956906	0.16899	-0.0722292	-0.324691	0.470698	0.15801	0	0	0.400452	-0.0563803	-0.0877558	1.29495	-0.041937	0	0	-0.101906	-0.00243888	-0.0105427	-0.106657	-0.219629	0.170538	0.654117	1.10934	0	0	-0.123121	-0.23007	0.377907	0.637777	0.897418	0	0
1.33	-2.60573	1.49999	-2.12359	0.668546	1.0556	0.958132	0.146952	-0.074087	-0.317741	0.462203	0.164374	0	0	0.406238	-0.052896	-0.102279	1.26834	-0.0264386	0	0	-0.109502	-0.00898532	-0.000483858	-0.0917165	-0.22335	0.179587	0.65305	1.10486	0	0	-0.133696	-0.228914	0.375006	0.638809	0.899316	0	0
1.34	-2.58194	1.49337	-2.15466	0.670129	1.06574	0.959021	0.126986	-0.0765374	-0.313761	0.455422	0.171448	0	0	0.41297	-0.0491279	-0.114595	1.23981	-0.0108157	0	0	-0.11534	-0.0149117	0.00766	-0.0769818	-0.226544	0.187618	0.6518	1.09895	0	0	-0.144075	-0.227667	0.37376	0.638528	0.899792	0	0
1.35	-2.60439	1.48603	-2.13754	0.671885	1.07589	0.960084	0.100711	-0.0747103	-0.307774	0.441632	0.176202	0	0	0.41537	-0.0484256	-0.126198	1.20817	0.00591405	0	0	-0.123955	-0.0181034	0.0124092	-0.0585015	-0.229493	0.199664	0.643815	1.10959	0	0	-0.15452	-0.223365	0.361421	0.634282	0.92797	0	0
1.36	-2.60968	1.4803	-2.1363	0.67331	1.08603	0.96073	0.0781469	-0.0744177	-0.304563	0.4314	0.182512	0	0	0.4195	-0.0470893	-0.137299	1.17431	0.0210449	0	0	-0.130129	-0.0213494	0.0166653	-0.0415297	-0.232352	0.211412	0.638143	1.10762	0	0	-0.163945	-0.221289	0.360218	0.632509	0.929477	0	0
1.37	-2.61722	1.4753	-2.13253	0.674639	1.09604	0.961171	0.0564125	-0.0737551	-0.301171	0.421426	0.188882	0	0	0.423318	-0.046751	-0.148902	1.13862	0.034375	0	0	-0.135988	-0.0238786	0.0207607	-0.0242509	-0.235205	0.223528	0.631961	1.10604	0	0	-0.17281	-0.218703	0.359584	0.631195	0.929328	0	0
1.38	-2.62799	1.47139	-2.12506	0.675891	1.10596	0.961394	0.0355641	-0.0722058	-0.297635	0.411548	0.195221	0	0	0.427271	-0.0481591	-0.161754	1.1015	0.0459142	0	0	-0.141274	-0.0253423	0.0242324	-0.00670382	-0.238021	0.236533	0.625597	1.10411	0	0	-0.181219	-0.216106	0.362067	0.628441	0.929099	0	0
1.39	-2.65102	1.46806	-2.10649	0.677187	1.11597	0.961446	0.0144399	-0.068939	-0.29237	0.401213	0.201275	0	0	0.430252	-0.0545478	-0.181096	1.06411	0.0558031	0	0	-0.146727	-0.0251887	0.0292293	0.0101462	-0.24116	0.249111	0.61984	1.10227	0	0	-0.188801	-0.213311	0.366512	0.624632	0.928021	0	0
1.4	-2.68341	1.46433	-2.07972	0.678459	1.12616	0.961421	-0.00813018	-0.065051	-0.286731	0.390115	0.207041	0	0	0.430039	-0.0722233	-0.221593	1.02747	0.0640607	0	0	-0.152706	-0.0241413	0.0354023	0.0263066	-0.244035	0.26056	0.614198	1.10002	0	0	-0.196613	-0.20979	0.369827	0.62202	0.92532	0	0
1.41	-2.68878	1.46208	-2.07572	0.679357	1.1361	0.961156	-0.0274359	-0.0635593	-0.284655	0.380488	0.213368	0	0	0.432362	-0.0731153	-0.236511	0.98592	0.0726719	0	0	-0.15651	-0.0247503	0.0375753	0.0424393	-0.245573	0.270319	0.60794	1.09735	0	0	-0.203727	-0.206337	0.372528	0.619462	0.921667	0	0
1.42	-2.68442	1.46134	-2.08041	0.679961	1.14609	0.960608	-0.043872	-0.063116	-0.285439	0.373342	0.22099	0	0	0.435802	-0.0729385	-0.251468	0.94235	0.0794052	0	0	-0.15821	-0.0254077	0.0389193	0.0569343	-0.246823	0.278463	0.603538	1.09193	0	0	-0.211052	-0.202733	0.375545	0.616392	0.917724	0	0
1.43	-2.70548	1.4576	-2.05998	0.680905	1.15616	0.960438	-0.0684601	-0.0597233	-0.280826	0.357958	0.22474	0	0	0.43231	-0.0742317	-0.26997	0.89503	0.085575	0	0	-0.164574	-0.0253005	0.0399676	0.0735359	-0.244718	0.27768	0.592293	1.11669	0	0	-0.218066	-0.198305	0.374403	0.612778	0.913943	0	0
